<?xml version="1.0" encoding="UTF-8" standalone="no"?>
<!DOCTYPE svg PUBLIC "-//W3C//DTD SVG 1.1//EN" "http://www.w3.org/Graphics/SVG/1.1/DTD/svg11.dtd">
<svg width="100%" height="100%" viewBox="0 0 555 520" version="1.1" xmlns="http://www.w3.org/2000/svg" xmlns:xlink="http://www.w3.org/1999/xlink" xml:space="preserve" xmlns:serif="http://www.serif.com/" style="fill-rule:evenodd;clip-rule:evenodd;stroke-linejoin:round;stroke-miterlimit:2;">
    <g id="Artboard1" transform="matrix(2.166619,0,0,2.03125,0,0)">
        <rect x="0" y="0" width="256" height="256" style="fill:none;"/>
        <g transform="matrix(1.064297,0,0,1.135225,-8.181672,-17.399242)">
            <path d="M232,168L63.86,168C66.52,162.76 69.19,157.37 71.86,151.89C86.86,153.54 104.44,143.11 124.52,120.75C129.52,134.21 138.97,151.68 155.1,152C164.16,152.18 173.21,146.8 182.52,135.63C189.31,143.75 203.3,152 232,152C236.389,152 240,148.389 240,144C240,139.611 236.389,136 232,136C201.57,136 192.57,125.55 192,119.89C192.185,116.368 189.918,113.151 186.54,112.14C183.033,111.086 179.227,112.523 177.29,115.63C165.22,134.17 157.91,136.06 155.37,136C147.11,135.84 138.71,116.48 135.83,102.58C135.066,98.877 131.776,96.197 127.995,96.197C125.562,96.197 123.257,97.307 121.74,99.21C101.54,124.55 88,133.08 79.57,135.29C88.06,116.42 94.4,99.85 98.46,85.9C105.28,62.46 105.78,46.07 99.97,35.8C96.97,30.42 90.63,24 77.91,24C61.85,24 49.18,39.18 43.14,65.65C39.55,81.36 38.96,98.86 41.52,113.65C44.08,128.44 49.39,139.2 57.11,145.59C53.38,153.31 49.58,160.85 45.88,168L24,168C19.611,168 16,171.611 16,176C16,180.389 19.611,184 24,184L37.41,184C26.09,205 17.29,219.64 17.15,219.88C16.34,221.16 15.909,222.644 15.909,224.159C15.909,228.548 19.521,232.159 23.909,232.159C26.78,232.159 29.439,230.614 30.86,228.12C31.01,227.86 42.13,209.33 55.56,184L232,184C236.389,184 240,180.389 240,176C240,171.611 236.389,168 232,168ZM58.74,69.21C62.72,51.74 70.43,40 77.91,40C83.24,40 85.01,41.86 86.04,43.67C89.04,49 92.56,67.86 64.38,130.06C56.12,118.78 53.31,93 58.74,69.21Z" style="fill-rule:nonzero;"/>
        </g>
    </g>
</svg>
